<?xml version="1.0" encoding="UTF-8" ?>
<!DOCTYPE svg PUBLIC "-//W3C//DTD SVG 1.1//EN" "http://www.w3.org/Graphics/SVG/1.1/DTD/svg11.dtd">
<svg width="720pt" height="474pt" viewBox="0 0 720 474" version="1.1" xmlns="http://www.w3.org/2000/svg">
<g id="#ffffffff">
<path fill="#ffffff" opacity="1.00" d=" M 337.55 208.57 C 350.99 192.13 359.45 171.73 361.82 150.63 C 363.25 155.09 363.15 159.85 362.27 164.41 C 360.16 175.89 355.70 186.85 350.06 197.04 C 345.92 204.27 341.22 211.41 334.74 216.76 C 332.48 218.43 329.64 220.46 326.70 219.46 C 326.01 218.49 325.36 217.50 324.74 216.51 C 329.75 215.31 334.38 212.69 337.55 208.57 Z" />
<path fill="#ffffff" opacity="1.00" d=" M 329.40 169.50 C 335.55 167.24 342.92 172.32 342.46 179.00 C 342.79 186.60 333.01 191.74 327.00 187.01 C 320.30 182.97 321.89 171.61 329.40 169.50 M 329.49 174.33 C 325.73 176.30 325.99 182.61 329.93 184.22 C 333.48 186.13 338.46 183.18 338.03 179.03 C 338.27 174.75 332.96 172.08 329.49 174.33 Z" />
<path fill="#ffffff" opacity="1.00" d=" M 311.31 205.69 C 306.85 197.57 305.60 187.79 307.69 178.78 C 307.16 187.04 307.84 195.67 311.79 203.10 C 313.94 207.50 317.62 210.81 320.58 214.64 C 320.87 215.04 321.45 215.85 321.74 216.26 C 317.03 214.22 313.72 210.07 311.31 205.69 Z" />
<path fill="#ffffff" opacity="1.00" d=" M 340.56 241.45 C 347.55 238.14 355.29 236.77 362.93 236.03 C 374.67 235.22 386.76 235.15 398.15 238.47 C 387.07 238.24 375.94 237.29 364.90 238.78 C 357.39 239.79 349.62 241.03 342.99 244.91 C 340.25 246.41 339.19 249.50 338.13 252.23 C 336.81 250.69 334.51 249.37 334.72 247.08 C 335.41 244.26 338.19 242.71 340.56 241.45 Z" />
<path fill="#ffffff" opacity="1.00" d=" M 334.84 253.90 C 340.30 256.51 345.88 259.06 351.90 260.05 C 354.90 260.75 358.15 260.71 360.97 262.03 C 362.55 264.13 363.54 266.67 365.45 268.53 C 370.25 272.94 379.04 272.37 382.70 266.78 C 384.38 264.81 385.08 261.34 388.20 261.36 C 394.88 260.45 401.51 259.06 407.79 256.55 C 407.13 265.59 400.36 272.34 394.08 278.14 C 377.13 287.86 353.10 283.57 341.05 267.98 C 337.80 263.90 335.95 258.94 334.84 253.90 Z" />
<path fill="#ffffff" opacity="1.00" d=" M 363.61 262.10 C 370.14 262.07 376.68 262.10 383.21 262.17 C 381.06 265.85 377.74 269.66 373.02 269.18 C 368.56 269.29 365.53 265.67 363.61 262.10 Z" />
</g>
<g id="#e51c4fff">
<path fill="#e51c4f" opacity="1.00" d=" M 336.20 146.19 C 342.00 144.35 348.19 144.70 354.09 145.81 C 346.32 151.12 340.56 158.65 335.84 166.69 C 330.86 166.80 325.08 167.58 322.41 172.41 C 318.68 177.85 321.14 184.72 325.24 189.16 C 322.57 197.42 321.12 205.98 320.58 214.64 C 317.62 210.81 313.94 207.50 311.79 203.10 C 307.84 195.67 307.16 187.04 307.69 178.78 C 310.37 163.89 321.53 150.50 336.20 146.19 M 312.68 175.61 C 312.08 183.94 311.79 192.99 316.31 200.38 C 316.89 192.07 317.26 182.97 312.68 175.61 Z" />
</g>
<g id="#263344ff">
<path fill="#263344" opacity="1.00" d=" M 341.32 142.25 C 348.11 141.39 355.23 142.48 361.24 145.82 C 364.98 148.09 365.77 152.96 365.76 156.99 C 365.56 167.47 362.10 177.57 358.09 187.15 C 353.19 198.15 347.14 208.95 338.39 217.38 C 334.89 220.43 330.09 224.04 325.24 221.83 C 312.21 216.65 304.30 202.70 304.05 189.02 C 302.89 167.25 319.20 145.03 341.32 142.25 M 336.20 146.19 C 321.53 150.50 310.37 163.89 307.69 178.78 C 305.60 187.79 306.85 197.57 311.31 205.69 C 313.72 210.07 317.03 214.22 321.74 216.26 C 321.45 215.85 320.87 215.04 320.58 214.64 C 321.12 205.98 322.57 197.42 325.24 189.16 C 321.14 184.72 318.68 177.85 322.41 172.41 C 325.08 167.58 330.86 166.80 335.84 166.69 C 340.56 158.65 346.32 151.12 354.09 145.81 C 348.19 144.70 342.00 144.35 336.20 146.19 M 355.05 149.08 C 347.77 153.40 342.96 160.72 338.59 167.76 C 340.95 170.32 343.75 172.88 344.44 176.47 C 345.69 182.00 342.32 188.01 337.08 190.06 C 334.19 191.15 331.04 190.70 328.03 190.56 C 325.22 199.01 323.40 207.82 323.90 216.77 L 324.74 216.51 C 325.36 217.50 326.01 218.49 326.70 219.46 C 329.64 220.46 332.48 218.43 334.74 216.76 C 341.22 211.41 345.92 204.27 350.06 197.04 C 355.70 186.85 360.16 175.89 362.27 164.41 C 363.15 159.85 363.25 155.09 361.82 150.63 C 361.44 147.68 357.12 147.56 355.05 149.08 M 329.40 169.50 C 321.89 171.61 320.30 182.97 327.00 187.01 C 333.01 191.74 342.79 186.60 342.46 179.00 C 342.92 172.32 335.55 167.24 329.40 169.50 Z" />
<path fill="#263344" opacity="1.00" d=" M 250.11 160.19 C 256.86 160.22 263.61 160.14 270.36 160.27 C 257.28 182.63 243.48 204.57 230.14 226.78 C 239.05 226.72 247.96 226.72 256.88 226.77 C 256.92 219.93 256.83 213.09 257.02 206.25 C 262.95 206.29 268.87 206.29 274.80 206.25 C 274.80 213.09 274.74 219.93 274.90 226.76 C 279.33 226.73 283.76 226.74 288.19 226.80 C 288.30 232.47 288.30 238.14 288.16 243.81 C 283.72 243.79 279.29 243.80 274.85 243.85 C 274.75 253.21 274.79 262.58 274.83 271.95 C 268.86 272.02 262.89 272.02 256.93 271.98 C 256.87 262.61 256.92 253.23 256.90 243.86 C 240.94 243.73 224.98 243.81 209.02 243.82 C 209.39 237.01 207.14 229.31 211.28 223.28 C 224.35 202.33 237.08 181.17 250.11 160.19 Z" />
<path fill="#263344" opacity="1.00" d=" M 473.12 160.19 C 479.86 160.22 486.61 160.14 493.36 160.26 C 480.29 182.63 466.48 204.57 453.14 226.78 C 462.05 226.72 470.97 226.72 479.88 226.78 C 479.91 219.93 479.83 213.08 480.02 206.24 C 485.95 206.29 491.87 206.30 497.80 206.25 C 497.80 213.08 497.74 219.92 497.89 226.76 C 502.32 226.73 506.76 226.73 511.19 226.80 C 511.30 232.47 511.30 238.14 511.16 243.81 C 506.72 243.79 502.28 243.80 497.85 243.85 C 497.75 253.22 497.80 262.58 497.83 271.95 C 491.86 272.02 485.89 272.02 479.92 271.98 C 479.87 262.61 479.90 253.23 479.93 243.86 C 463.96 243.73 447.99 243.81 432.02 243.82 C 432.38 237.01 430.14 229.31 434.28 223.28 C 447.35 202.33 460.08 181.17 473.12 160.19 Z" />
<path fill="#263344" opacity="1.00" d=" M 329.49 174.33 C 332.96 172.08 338.27 174.75 338.03 179.03 C 338.46 183.18 333.48 186.13 329.93 184.22 C 325.99 182.61 325.73 176.30 329.49 174.33 M 330.30 176.00 C 327.27 177.59 328.86 182.87 332.09 182.95 C 334.20 183.08 336.49 181.32 336.12 179.06 C 336.58 176.00 332.57 174.72 330.30 176.00 Z" />
<path fill="#263344" opacity="1.00" d=" M 362.36 233.32 C 375.27 232.15 388.46 232.73 401.03 236.07 C 406.16 237.53 411.64 239.57 414.97 243.98 C 416.75 247.50 415.99 251.71 415.44 255.46 C 412.86 269.03 401.57 279.63 388.69 283.69 C 371.88 289.27 351.55 284.80 339.98 271.01 C 334.21 264.21 330.89 255.04 332.03 246.11 C 333.26 242.32 336.90 239.98 340.35 238.38 C 347.29 235.35 354.87 234.12 362.36 233.32 M 340.56 241.45 C 338.19 242.71 335.41 244.26 334.72 247.08 C 334.51 249.37 336.81 250.69 338.13 252.23 C 345.68 256.55 354.45 258.01 362.99 258.90 C 375.40 259.89 388.11 259.55 400.16 256.16 C 404.41 254.84 409.02 253.44 412.09 250.02 C 413.67 248.41 413.30 245.73 411.62 244.35 C 407.92 241.05 403.06 239.03 398.15 238.47 C 386.76 235.15 374.67 235.22 362.93 236.03 C 355.29 236.77 347.55 238.14 340.56 241.45 M 334.84 253.90 C 335.95 258.94 337.80 263.90 341.05 267.98 C 353.10 283.57 377.13 287.86 394.08 278.14 C 404.00 273.88 411.09 264.35 413.02 253.80 C 411.26 254.69 409.51 255.59 407.79 256.55 C 401.51 259.06 394.88 260.45 388.20 261.36 C 385.08 261.34 384.38 264.81 382.70 266.78 C 379.04 272.37 370.25 272.94 365.45 268.53 C 363.54 266.67 362.55 264.13 360.97 262.03 C 358.15 260.71 354.90 260.75 351.90 260.05 C 345.88 259.06 340.30 256.51 334.84 253.90 M 363.61 262.10 C 365.53 265.67 368.56 269.29 373.02 269.18 C 377.74 269.66 381.06 265.85 383.21 262.17 C 376.68 262.10 370.14 262.07 363.61 262.10 Z" />
</g>
<g id="#d7e0e7ff">
<path fill="#d7e0e7" opacity="1.00" d=" M 355.05 149.08 C 357.12 147.56 361.44 147.68 361.82 150.63 C 359.45 171.73 350.99 192.13 337.55 208.57 C 334.38 212.69 329.75 215.31 324.74 216.51 L 323.90 216.77 C 323.40 207.82 325.22 199.01 328.03 190.56 C 331.04 190.70 334.19 191.15 337.08 190.06 C 342.32 188.01 345.69 182.00 344.44 176.47 C 343.75 172.88 340.95 170.32 338.59 167.76 C 342.96 160.72 347.77 153.40 355.05 149.08 Z" />
<path fill="#d7e0e7" opacity="1.00" d=" M 312.68 175.61 C 317.26 182.97 316.89 192.07 316.31 200.38 C 311.79 192.99 312.08 183.94 312.68 175.61 Z" />
<path fill="#d7e0e7" opacity="1.00" d=" M 364.90 238.78 C 375.94 237.29 387.07 238.24 398.15 238.47 C 403.06 239.03 407.92 241.05 411.62 244.35 C 413.30 245.73 413.67 248.41 412.09 250.02 C 409.02 253.44 404.41 254.84 400.16 256.16 C 388.11 259.55 375.40 259.89 362.99 258.90 C 354.45 258.01 345.68 256.55 338.13 252.23 C 339.19 249.50 340.25 246.41 342.99 244.91 C 349.62 241.03 357.39 239.79 364.90 238.78 Z" />
<path fill="#d7e0e7" opacity="1.00" d=" M 407.79 256.55 C 409.51 255.59 411.26 254.69 413.02 253.80 C 411.09 264.35 404.00 273.88 394.08 278.14 C 400.36 272.34 407.13 265.59 407.79 256.55 Z" />
<path fill="#d7e0e7" opacity="1.00" d=" M 316.41 296.47 C 340.59 295.59 364.81 296.18 389.01 296.06 C 397.68 295.87 406.33 296.85 415.00 296.93 C 430.35 296.83 445.67 297.89 460.99 298.71 C 473.00 299.52 485.03 300.32 496.96 302.02 C 500.95 302.66 505.07 303.31 508.64 305.32 C 508.64 305.66 508.65 306.33 508.66 306.67 C 503.73 309.30 498.04 309.79 492.60 310.57 C 475.46 312.57 458.23 313.70 440.99 314.29 C 428.04 315.41 415.02 314.67 402.06 315.77 C 376.38 316.16 350.68 315.95 325.00 315.92 C 316.32 315.97 307.69 314.90 299.01 315.02 C 292.33 315.09 285.66 314.78 279.01 314.29 C 261.77 313.71 244.53 312.57 227.40 310.57 C 221.95 309.80 216.27 309.29 211.32 306.68 C 210.76 304.88 212.89 304.65 214.06 304.08 C 219.83 302.08 225.98 301.65 231.99 300.90 C 247.92 299.30 263.91 298.22 279.91 297.66 C 292.05 296.55 304.25 297.36 316.41 296.47 Z" />
</g>
<g id="#e6302eff">
<path fill="#e6302e" opacity="1.00" d=" M 330.30 176.00 C 332.57 174.72 336.58 176.00 336.12 179.06 C 336.49 181.32 334.20 183.08 332.09 182.95 C 328.86 182.87 327.27 177.59 330.30 176.00 Z" />
</g>
</svg>
