<?xml version="1.0" encoding="UTF-8" ?>
<!DOCTYPE svg PUBLIC "-//W3C//DTD SVG 1.1//EN" "http://www.w3.org/Graphics/SVG/1.1/DTD/svg11.dtd">
<svg width="220pt" height="324pt" viewBox="0 0 220 324" version="1.1" xmlns="http://www.w3.org/2000/svg">
<g id="#2f6db5ff">
<path fill="#2f6db5" opacity="1.00" d=" M 17.84 37.04 C 37.20 27.35 56.04 16.62 75.12 6.37 C 120.64 16.06 166.13 25.93 211.65 35.66 C 214.59 62.13 216.95 88.69 219.71 115.19 C 215.60 119.58 211.33 123.84 207.01 128.03 C 191.64 140.97 175.95 153.54 160.73 166.65 C 160.03 173.74 160.32 180.86 160.21 187.97 C 159.23 201.19 159.61 214.45 158.63 227.67 L 158.34 227.64 C 136.92 225.66 115.44 224.40 94.02 222.43 C 89.16 221.85 84.13 222.22 79.42 220.77 C 79.20 213.16 81.09 205.65 81.26 198.04 C 81.39 188.95 83.79 180.09 84.17 171.02 C 84.58 160.22 87.40 149.62 87.20 138.78 L 87.20 138.37 C 102.59 126.72 118.55 115.86 134.08 104.40 C 138.39 101.12 142.87 98.07 147.27 94.90 C 145.97 89.49 144.49 84.12 142.92 78.78 C 133.17 78.51 123.44 77.49 113.68 77.61 C 113.55 81.79 113.42 85.96 113.39 90.14 C 113.48 96.97 112.53 103.76 112.41 110.58 C 99.64 109.96 86.84 109.54 74.08 108.53 C 64.34 108.94 54.68 107.27 44.94 107.42 C 41.51 100.88 38.84 93.99 35.64 87.34 C 31.26 78.09 26.74 68.92 22.54 59.58 C 19.47 53.44 17.02 46.99 13.42 41.13 C 14.64 40.28 15.94 39.58 17.15 38.72 C 17.32 38.30 17.67 37.46 17.84 37.04 M 26.00 44.51 C 26.57 45.57 27.15 46.64 27.74 47.70 C 36.76 63.82 45.48 80.13 54.69 96.15 C 67.61 96.09 80.54 96.40 93.46 96.43 C 96.47 96.48 99.49 96.54 102.50 96.58 C 102.31 86.71 102.70 76.84 102.28 66.97 C 102.46 66.80 102.82 66.44 103.00 66.26 C 119.35 66.17 135.69 65.59 152.04 65.70 C 156.12 77.42 160.15 89.15 164.24 100.86 C 145.86 113.70 127.03 125.87 108.61 138.66 C 106.02 140.81 101.43 141.98 101.56 146.05 C 99.13 167.10 96.76 188.16 94.34 209.21 C 108.80 210.54 123.28 211.75 137.73 213.23 C 140.70 213.47 143.67 213.73 146.64 213.96 C 147.02 195.70 147.90 177.43 148.09 159.17 C 164.47 145.74 181.26 132.81 197.74 119.49 C 200.82 117.15 203.80 114.67 206.76 112.18 C 204.30 89.05 202.28 65.87 199.55 42.77 C 158.29 34.51 117.08 25.92 75.86 17.39 C 59.29 26.52 42.60 35.44 26.00 44.51 Z" />
<path fill="#2f6db5" opacity="1.00" d=" M 114.99 234.58 C 128.25 234.08 141.49 232.67 154.76 232.59 C 156.99 232.64 159.23 232.64 161.46 232.61 C 169.57 252.67 177.47 272.83 185.47 292.94 L 185.06 293.00 C 156.63 297.68 128.29 303.04 99.93 308.14 C 89.71 285.14 80.04 261.89 69.82 238.89 C 68.50 239.58 67.19 240.28 65.90 241.03 C 67.19 239.69 68.54 238.42 69.90 237.15 C 79.32 236.99 88.75 235.65 98.16 236.97 C 98.22 236.52 98.35 235.63 98.41 235.18 C 103.95 235.83 109.46 234.74 114.99 234.58 M 86.07 248.41 C 87.46 251.44 88.88 254.47 90.28 257.50 C 95.81 269.76 101.39 282.00 106.97 294.24 C 123.63 291.52 140.31 288.93 156.97 286.20 C 160.90 285.51 164.85 284.92 168.81 284.40 C 163.76 271.68 158.89 258.89 153.90 246.15 C 131.28 246.57 108.69 247.87 86.07 248.41 Z" />
</g>
<g id="#c7a007ff">
<path fill="#c7a007" opacity="1.00" d=" M 26.00 44.51 C 42.60 35.44 59.29 26.52 75.86 17.39 C 117.08 25.92 158.29 34.51 199.55 42.77 C 202.28 65.87 204.30 89.05 206.76 112.18 C 203.80 114.67 200.82 117.15 197.74 119.49 C 194.92 97.06 193.20 74.49 190.62 52.03 C 149.42 43.40 108.15 35.11 66.94 26.52 C 53.84 33.51 40.87 40.77 27.74 47.70 C 27.15 46.64 26.57 45.57 26.00 44.51 Z" />
<path fill="#c7a007" opacity="1.00" d=" M 93.80 75.70 C 96.06 72.30 99.50 69.92 102.28 66.97 C 102.70 76.84 102.31 86.71 102.50 96.58 C 99.49 96.54 96.47 96.48 93.46 96.43 C 93.72 89.53 92.79 82.54 93.80 75.70 Z" />
<path fill="#c7a007" opacity="1.00" d=" M 139.17 168.09 C 142.06 165.03 145.00 162.03 148.09 159.17 C 147.90 177.43 147.02 195.70 146.64 213.96 C 143.67 213.73 140.70 213.47 137.73 213.23 C 138.43 198.19 138.62 183.13 139.17 168.09 Z" />
<path fill="#c7a007" opacity="1.00" d=" M 86.07 248.41 C 108.69 247.87 131.28 246.57 153.90 246.15 C 158.89 258.89 163.76 271.68 168.81 284.40 C 164.85 284.92 160.90 285.51 156.97 286.20 C 152.73 275.92 148.97 265.46 144.76 255.17 C 133.50 255.42 122.25 255.87 111.00 256.37 C 104.09 256.66 97.13 256.37 90.28 257.50 C 88.88 254.47 87.46 251.44 86.07 248.41 Z" />
</g>
<g id="#ffcb05ff">
<path fill="#ffcb05" opacity="1.00" d=" M 27.74 47.70 C 40.87 40.77 53.84 33.51 66.94 26.52 C 108.15 35.11 149.42 43.40 190.62 52.03 C 193.20 74.49 194.92 97.06 197.74 119.49 C 181.26 132.81 164.47 145.74 148.09 159.17 C 145.00 162.03 142.06 165.03 139.17 168.09 C 138.62 183.13 138.43 198.19 137.73 213.23 C 123.28 211.75 108.80 210.54 94.34 209.21 C 96.76 188.16 99.13 167.10 101.56 146.05 C 101.43 141.98 106.02 140.81 108.61 138.66 C 127.03 125.87 145.86 113.70 164.24 100.86 C 160.15 89.15 156.12 77.42 152.04 65.70 C 135.69 65.59 119.35 66.17 103.00 66.26 C 102.82 66.44 102.46 66.80 102.28 66.97 C 99.50 69.92 96.06 72.30 93.80 75.70 C 92.79 82.54 93.72 89.53 93.46 96.43 C 80.54 96.40 67.61 96.09 54.69 96.15 C 45.48 80.13 36.76 63.82 27.74 47.70 Z" />
<path fill="#ffcb05" opacity="1.00" d=" M 111.00 256.37 C 122.25 255.87 133.50 255.42 144.76 255.17 C 148.97 265.46 152.73 275.92 156.97 286.20 C 140.31 288.93 123.63 291.52 106.97 294.24 C 101.39 282.00 95.81 269.76 90.28 257.50 C 97.13 256.37 104.09 256.66 111.00 256.37 Z" />
</g>
<g id="#124883ff">
<path fill="#124883" opacity="1.00" d=" M 13.27 40.87 L 13.42 41.13 C 17.02 46.99 19.47 53.44 22.54 59.58 C 26.74 68.92 31.26 78.09 35.64 87.34 C 38.84 93.99 41.51 100.88 44.94 107.42 C 54.68 107.27 64.34 108.94 74.08 108.53 C 86.84 109.54 99.64 109.96 112.41 110.58 C 108.19 114.32 105.03 119.30 100.17 122.26 C 96.13 122.05 92.10 121.39 88.03 121.64 C 82.34 121.86 76.71 120.62 71.01 120.88 C 65.47 118.01 58.97 120.33 53.03 119.36 C 46.80 118.22 40.47 119.11 34.21 118.60 C 32.15 117.15 31.79 114.43 30.65 112.33 C 21.29 92.28 11.64 72.38 2.32 52.31 C 6.15 48.68 9.67 44.73 13.27 40.87 Z" />
<path fill="#124883" opacity="1.00" d=" M 87.20 138.78 C 87.40 149.62 84.58 160.22 84.17 171.02 C 83.79 180.09 81.39 188.95 81.26 198.04 C 81.09 205.65 79.20 213.16 79.42 220.77 C 84.13 222.22 89.16 221.85 94.02 222.43 C 115.44 224.40 136.92 225.66 158.34 227.64 C 157.16 229.30 155.97 230.95 154.76 232.59 C 141.49 232.67 128.25 234.08 114.99 234.58 C 109.46 234.74 103.95 235.83 98.41 235.18 C 87.98 234.88 77.60 233.72 67.18 233.25 C 67.28 230.00 68.26 226.90 69.16 223.80 C 71.05 205.80 72.86 187.77 75.16 169.82 C 75.41 162.93 76.47 156.10 77.21 149.25 C 79.87 147.60 82.08 145.36 84.12 143.00 C 84.72 141.30 85.77 139.87 87.20 138.78 Z" />
<path fill="#124883" opacity="1.00" d=" M 65.90 241.03 C 67.19 240.28 68.50 239.58 69.82 238.89 C 80.04 261.89 89.71 285.14 99.93 308.14 C 128.29 303.04 156.63 297.68 185.06 293.00 C 180.28 297.59 176.34 303.68 169.99 306.20 C 167.35 306.19 164.73 306.45 162.13 306.84 C 142.79 310.08 123.52 313.70 104.23 317.20 C 101.19 317.63 98.14 318.12 95.25 319.22 C 92.89 319.53 90.56 320.05 88.30 320.78 C 86.78 316.76 84.67 313.02 82.79 309.18 C 77.05 295.74 71.29 282.32 65.48 268.91 C 62.47 262.56 60.85 255.62 57.30 249.51 C 60.23 246.75 62.82 243.63 65.90 241.03 Z" />
</g>
<g id="#0d5491ff">
<path fill="#0d5491" opacity="1.00" d=" M 113.68 77.61 C 123.44 77.49 133.17 78.51 142.92 78.78 C 144.49 84.12 145.97 89.49 147.27 94.90 C 142.87 98.07 138.39 101.12 134.08 104.40 C 133.12 99.81 132.10 95.22 130.57 90.78 C 124.84 90.53 119.08 90.89 113.39 90.14 C 113.42 85.96 113.55 81.79 113.68 77.61 Z" />
</g>
</svg>
