<?xml version="1.0" encoding="UTF-8" ?>
<!DOCTYPE svg PUBLIC "-//W3C//DTD SVG 1.1//EN" "http://www.w3.org/Graphics/SVG/1.1/DTD/svg11.dtd">
<svg width="262pt" height="266pt" viewBox="0 0 262 266" version="1.1" xmlns="http://www.w3.org/2000/svg">
<g id="#6ce679ff">
<path fill="#6ce679" opacity="1.00" d=" M 75.17 22.22 C 100.62 9.21 130.74 5.81 158.50 12.53 C 186.92 19.28 212.57 36.80 229.29 60.73 C 245.35 83.12 253.00 111.09 251.52 138.53 C 250.95 159.21 245.17 179.80 234.52 197.56 C 219.76 222.62 195.73 242.11 168.08 251.17 C 157.69 254.67 146.81 256.43 135.94 257.50 C 130.60 257.35 125.17 258.05 119.90 256.91 C 93.47 254.79 67.88 243.54 48.33 225.64 C 28.42 207.65 14.84 182.88 10.27 156.45 C 6.16 131.44 8.29 105.03 18.76 81.77 C 29.98 56.22 50.25 34.78 75.17 22.22 M 109.95 148.92 C 100.72 139.52 91.32 130.28 82.07 120.90 C 75.58 127.63 68.85 134.13 62.33 140.83 C 62.35 142.23 62.38 143.64 62.40 145.05 C 78.22 161.00 94.18 176.81 109.96 192.79 C 141.58 160.67 173.80 129.12 205.29 96.88 C 206.75 96.16 206.79 94.89 205.36 94.12 C 198.96 86.89 191.77 80.41 185.10 73.44 C 160.20 98.74 134.92 123.68 109.95 148.92 Z" />
</g>
<g id="#ffffffff">
<path fill="#ffffff" opacity="1.00" d=" M 109.95 148.92 C 134.92 123.68 160.20 98.74 185.10 73.44 C 191.77 80.41 198.96 86.89 205.36 94.12 C 206.79 94.89 206.75 96.16 205.29 96.88 C 173.80 129.12 141.58 160.67 109.96 192.79 C 94.18 176.81 78.22 161.00 62.40 145.05 C 62.38 143.64 62.35 142.23 62.33 140.83 C 68.85 134.13 75.58 127.63 82.07 120.90 C 91.32 130.28 100.72 139.52 109.95 148.92 Z" />
</g>
</svg>
